<?xml version="1.0" encoding="utf-8"?>
<!-- Generator: Adobe Illustrator 16.0.0, SVG Export Plug-In . SVG Version: 6.00 Build 0)  -->
<svg version="1.1" xmlns="http://www.w3.org/2000/svg" xmlns:xlink="http://www.w3.org/1999/xlink"
	 x="0px" y="0px" width="478px" height="277px" viewBox="0 0 728 400">
<g id="comet" transform="translate(0.621203, 0.280802)">
  <path d="M587.352079,83.7275077 C586.630896,82.5219101 585.032928,82.1091595 583.785404,82.8066558 L576.702117,86.7630533 C575.45324,87.4592435 575.025672,89.0018336 575.748207,90.2061249 C576.46939,91.4117225 578.067358,91.8244731 579.316236,91.1269768 L586.399522,87.1705793 C587.645693,86.4743891 588.073261,84.9331052 587.352079,83.7275077" id="Fill-11" fill="#12364C"></path>
  <path d="M175.792019,316.027735 L528.727768,119.320718 C528.776478,119.289369 528.823835,119.256715 528.875252,119.227979 L529.024089,119.144384 L571.629347,95.3642015 C572.861988,94.6758484 573.281438,93.1502385 572.56702,91.9550904 C571.85125,90.7599422 570.272225,90.3484978 569.039584,91.0368509 L537.99084,108.378908 L537.842003,108.462503 C536.609362,109.150856 535.028984,108.739411 534.314566,107.544263 C533.598796,106.349115 534.018246,104.823505 535.252239,104.135152 L535.401076,104.051557 L615.752743,59.2367669 C616.985384,58.5484138 617.404833,57.022804 616.690416,55.8276558 C615.974645,54.6325077 614.39562,54.2210632 613.16298,54.9094163 L492.927065,121.95135 L492.778228,122.034945 C491.545587,122.723298 489.965209,122.311853 489.250792,121.116705 C488.535021,119.921557 488.954471,118.395947 490.188465,117.707594 L490.337302,117.623999 L692.060103,5.17427309 C693.292744,4.48592 693.712194,2.96031012 692.997776,1.76516198 C692.282006,0.570013827 690.702981,0.158569383 689.47034,0.846922469 L503.683918,104.409448 L503.535082,104.493043 C502.302441,105.181397 500.722063,104.769952 500.007645,103.574804 C499.291875,102.379656 499.711325,100.854046 500.945318,100.165693 L528.580284,84.7437101 C529.812925,84.055357 530.232374,82.5297472 529.517957,81.334599 C528.863074,80.2413323 527.487009,79.807683 526.313903,80.2661496 L160.345448,284.235488 C157.382239,293.419189 171.544753,313.837283 175.792019,316.027735" id="Fill-13" fill="#12364C"></path>
  <path d="M492.062457,110.786184 C490.81358,111.482374 490.386012,113.024964 491.108548,114.230562 C491.829731,115.43616 493.427698,115.84891 494.676576,115.151414 L585.770212,64.3726385 C587.01909,63.6764484 587.446658,62.1338583 586.724122,60.9282607 C586.002939,59.7226632 584.404971,59.3099126 583.157447,60.0074089 L492.062457,110.786184 Z" id="Fill-15" fill="#2E293A"></path>
  <path d="M522.659414,119.783103 C521.938231,118.577505 520.340264,118.164755 519.092739,118.862251 L513.768435,121.837713 C512.519557,122.533903 512.091989,124.076493 512.814525,125.280784 C513.535708,126.486382 515.133676,126.899132 516.382553,126.201636 L521.706858,123.226174 C522.953029,122.53129 523.380597,120.9887 522.659414,119.783103" id="Fill-17" fill="#2E293A"></path>
  <path d="M175.792019,316.027735 L465.794086,154.397989 C465.842796,154.366641 465.890153,154.333987 465.94157,154.305251 L466.090407,154.221656 L508.695665,130.441473 C509.928306,129.75312 510.347755,128.22751 509.633338,127.032362 C508.917567,125.837214 507.338543,125.425769 506.105902,126.114122 L475.057157,143.456179 L474.90832,143.539774 C473.67568,144.228127 472.095302,143.816683 471.380884,142.621535 C470.665114,141.426387 471.084563,139.900777 472.318557,139.212424 L472.467394,139.128829 L523.794499,110.490989 C525.02714,109.802636 525.446589,108.277026 524.732172,107.081878 C524.016401,105.88673 522.437376,105.475285 521.204736,106.163639 L392.991159,177.651784 L392.842322,177.735379 C391.609682,178.423732 390.029304,178.012288 389.314886,176.81714 C388.599116,175.621992 389.019918,174.096382 390.252559,173.408029 L390.401396,173.324434 L487.022296,119.452641 C488.254937,118.764288 488.674387,117.238678 487.959969,116.04353 C487.244199,114.848382 485.665174,114.436937 484.432533,115.12529 L403.749366,160.109883 L403.600529,160.193478 C402.367888,160.881831 400.78751,160.470387 400.073093,159.275239 C399.358675,158.08009 399.776772,156.55448 401.010766,155.866127 L465.647955,119.820982 C466.880596,119.132629 467.300045,117.607019 466.585628,116.411871 C465.930745,115.318604 464.55468,114.884955 463.381574,115.343421 L160.349507,284.235488 C157.382239,293.419189 171.544753,313.837283 175.792019,316.027735" id="Fill-19" fill="#2E293A"></path>
  <path d="M492.062457,110.786184 C490.81358,111.482374 490.386012,113.024964 491.108548,114.230562 C491.829731,115.43616 493.427698,115.84891 494.676576,115.151414 L585.770212,64.3726385 C587.01909,63.6764484 587.446658,62.1338583 586.724122,60.9282607 C586.002939,59.7226632 584.404971,59.3099126 583.157447,60.0074089 L492.062457,110.786184 Z" id="Fill-21" fill="#12364C"></path>
  <path d="M522.659414,119.783103 C521.938231,118.577505 520.340264,118.164755 519.092739,118.862251 L513.768435,121.837713 C512.519557,122.533903 512.091989,124.076493 512.814525,125.280784 C513.535708,126.486382 515.133676,126.899132 516.382553,126.201636 L521.706858,123.226174 C522.953029,122.53129 523.380597,120.9887 522.659414,119.783103" id="Fill-23" fill="#12364C"></path>
  <path d="M175.792019,316.027735 L465.794086,154.397989 C465.842796,154.366641 465.890153,154.333987 465.94157,154.305251 L466.090407,154.221656 L508.695665,130.441473 C509.928306,129.75312 510.347755,128.22751 509.633338,127.032362 C508.917567,125.837214 507.338543,125.425769 506.105902,126.114122 L475.057157,143.456179 L474.90832,143.539774 C473.67568,144.228127 472.095302,143.816683 471.380884,142.621535 C470.665114,141.426387 471.084563,139.900777 472.318557,139.212424 L472.467394,139.128829 L523.794499,110.490989 C525.02714,109.802636 525.446589,108.277026 524.732172,107.081878 C524.016401,105.88673 522.437376,105.475285 521.204736,106.163639 L392.991159,177.651784 L392.842322,177.735379 C391.609682,178.423732 390.029304,178.012288 389.314886,176.81714 C388.599116,175.621992 389.019918,174.096382 390.252559,173.408029 L390.401396,173.324434 L487.022296,119.452641 C488.254937,118.764288 488.674387,117.238678 487.959969,116.04353 C487.244199,114.848382 485.665174,114.436937 484.432533,115.12529 L403.749366,160.109883 L403.600529,160.193478 C402.367888,160.881831 400.78751,160.470387 400.073093,159.275239 C399.358675,158.08009 399.776772,156.55448 401.010766,155.866127 L465.647955,119.820982 C466.880596,119.132629 467.300045,117.607019 466.585628,116.411871 C465.930745,115.318604 464.55468,114.884955 463.381574,115.343421 L160.349507,284.235488 C157.382239,293.419189 171.544753,313.837283 175.792019,316.027735" id="Fill-25" fill="#12364C"></path>
  <path d="M375.126799,175.96029 C373.877922,176.65648 373.450354,178.199071 374.17289,179.404668 C374.894072,180.610266 376.49204,181.023016 377.740918,180.32552 L468.666774,129.639483 C469.915652,128.943293 470.34322,127.400703 469.620684,126.195105 C468.899501,124.989508 467.301534,124.576757 466.052656,125.274253 L375.126799,175.96029 Z" id="Fill-27" fill="#1B4660"></path>
  <path d="M407.482468,183.976273 C406.761285,182.770676 405.163317,182.357925 403.91444,183.055421 L396.831153,187.011819 C395.582276,187.708009 395.154708,189.250599 395.877244,190.45489 C396.598426,191.660488 398.196394,192.073239 399.445272,191.375742 L406.528558,187.419345 C407.776083,186.723155 408.203651,185.181871 407.482468,183.976273" id="Fill-29" fill="#1B4660"></path>
  <path d="M28.6355561,398.043503 L348.858292,219.570659 C348.907003,219.53931 348.95436,219.506656 349.005776,219.47792 L349.154613,219.394325 L391.759872,195.614142 C392.992512,194.925789 393.411962,193.40018 392.697545,192.205031 C391.981774,191.009883 390.402749,190.598439 389.170109,191.286792 L311.795181,234.449273 L311.646344,234.532868 C310.413704,235.221221 308.833326,234.809777 308.118908,233.614629 C307.403138,232.419481 307.82394,230.893871 309.056581,230.205518 L309.205418,230.121923 L416.533109,170.271777 C417.765749,169.583424 418.185199,168.057814 417.470781,166.862666 C416.755011,165.667518 415.175986,165.256073 413.943345,165.944426 L294.983369,232.274496 L294.834532,232.358091 C293.601891,233.046444 292.021513,232.634999 291.307096,231.439851 C290.591326,230.244703 291.010775,228.719093 292.244769,228.03074 L292.393606,227.947145 L370.08515,184.62531 C371.317791,183.936957 371.73724,182.411347 371.022823,181.216199 C370.307052,180.021051 368.728028,179.609607 367.495387,180.29796 L305.740223,214.732594 L305.591386,214.816189 C304.358745,215.504542 302.778367,215.093098 302.06395,213.89795 C301.348179,212.702802 301.767629,211.177192 303.001623,210.488839 L348.710808,184.993651 C349.943449,184.305298 350.362899,182.779688 349.648481,181.58454 C348.993599,180.491273 347.617533,180.057624 346.444427,180.516091 L13.1889849,366.251256 C10.2257762,375.436263 24.3882902,395.853051 28.6355561,398.043503" id="Fill-31" fill="#1B4660"></path>
  <path d="M263.542236,238.149792 C262.293359,238.845982 261.865791,240.388572 262.588327,241.594169 C263.309509,242.799767 264.907477,243.212518 266.156355,242.515021 L297.820743,224.858177 C299.06962,224.161987 299.497188,222.619397 298.774653,221.413799 C298.05347,220.208201 296.455502,219.795451 295.207978,220.492947 L263.542236,238.149792 Z" id="Fill-33" fill="#1F5266"></path>
  <path d="M279.638278,255.229308 C278.917095,254.02371 277.319127,253.61096 276.07025,254.308456 L268.098001,258.759893 C266.849123,259.456083 266.421555,260.998673 267.144091,262.202964 C267.865274,263.408562 269.463241,263.821313 270.712119,263.123816 L278.684368,258.672379 C279.933246,257.976189 280.360814,256.434905 279.638278,255.229308" id="Fill-35" fill="#1F5266"></path>
  <path d="M29.402743,397.616515 L237.59454,281.582651 C237.643251,281.551303 237.690608,281.518648 237.742024,281.489913 L237.890861,281.406318 L263.028072,267.362347 C264.260713,266.673994 264.680163,265.148384 263.965745,263.953236 C263.249975,262.758088 261.67095,262.346643 260.438309,263.034997 L234.279535,277.652377 L234.130698,277.735972 C232.898058,278.424325 231.31768,278.01288 230.603262,276.817732 C229.887492,275.622584 230.306941,274.096974 231.540935,273.408621 L231.689772,273.325026 L288.093571,241.85671 C289.326211,241.168357 289.745661,239.642747 289.031244,238.447599 C288.315473,237.252451 286.736448,236.841006 285.503807,237.52936 L243.355884,261.049614 L243.207047,261.133209 C241.974407,261.821562 240.394029,261.410118 239.679611,260.214969 C238.963841,259.019821 239.384643,257.494211 240.617284,256.805858 L240.766121,256.722263 L258.503428,246.814942 C259.736069,246.126589 260.155519,244.600979 259.441101,243.405831 C258.725331,242.210683 257.146306,241.799239 255.913665,242.487592 L219.322773,262.897848 L219.173936,262.981443 C217.941295,263.669797 216.360917,263.258352 215.6465,262.063204 C214.930729,260.868056 215.350179,259.342446 216.584173,258.654093 L250.713843,239.611399 C251.946483,238.923046 252.365933,237.397436 251.651516,236.202288 C250.996633,235.109021 249.620567,234.675372 248.447462,235.133839 L13.1889849,366.251387 C10.2257762,375.436394 25.1541241,395.426063 29.402743,397.616515" id="Fill-37" fill="#1F5266"></path>
  <path d="M181.315224,283.978172 C180.066346,284.674362 179.638778,286.216952 180.361314,287.42255 C181.082497,288.628147 182.680465,289.040898 183.927989,288.343401 L200.719505,278.976836 C201.968383,278.280646 202.395951,276.738056 201.673415,275.532458 C200.952232,274.326861 199.354264,273.91411 198.105387,274.611606 L181.315224,283.978172 Z" id="Fill-39" fill="#386B84"></path>
  <path d="M205.250914,270.626473 C204.002037,271.322663 203.574469,272.865253 204.297005,274.070851 C205.018187,275.276448 206.616155,275.689199 207.865033,274.991703 L207.985455,274.923782 C209.234333,274.227592 209.661901,272.685001 208.939365,271.479404 C208.218182,270.273806 206.620214,269.861056 205.371337,270.558552 L205.250914,270.626473 Z" id="Fill-41" fill="#386B84"></path>
  <path d="M223.118116,286.730278 C222.396933,285.52468 220.798965,285.11193 219.550088,285.809426 L200.428597,296.475634 C199.179719,297.171824 198.752151,298.714414 199.474687,299.918705 C200.19587,301.124303 201.793837,301.537053 203.042715,300.839557 L222.164206,290.17335 C223.411731,289.47716 223.839299,287.935876 223.118116,286.730278" id="Fill-43" fill="#386B84"></path>
  <path d="M29.0198261,397.829291 L186.046886,310.311792 C186.095597,310.280444 186.142954,310.247789 186.19437,310.219054 L186.343207,310.135459 L195.358668,305.076651 C196.591309,304.388298 197.010759,302.862688 196.296341,301.66754 C195.580571,300.472392 194.001546,300.060947 192.768905,300.7493 L178.021868,309.005619 L177.873031,309.089214 C176.64039,309.777567 175.060012,309.366123 174.345594,308.170975 C173.629824,306.975826 174.050627,305.450217 175.283267,304.761863 L175.432104,304.678268 L199.300142,291.34355 C200.532782,290.655197 200.952232,289.129587 200.237815,287.934439 C199.522044,286.739291 197.943019,286.327846 196.710379,287.016199 L157.690738,308.794019 L157.541901,308.877614 C156.30926,309.565967 154.728882,309.154523 154.014465,307.959375 C153.298694,306.764226 153.718144,305.238617 154.952138,304.550263 L155.100975,304.466668 L176.27371,292.644498 C177.50635,291.956145 177.9258,290.430535 177.211383,289.235387 C176.495612,288.040239 174.916587,287.628794 173.683947,288.317147 L162.151788,294.760498 L162.002951,294.844093 C160.77031,295.532446 159.189932,295.121002 158.475515,293.925854 C157.759744,292.730705 158.179194,291.205096 159.413187,290.516742 L214.490984,259.799476 C215.723625,259.111123 216.143074,257.585513 215.428657,256.390365 C214.773774,255.297098 213.397709,254.863449 212.224603,255.321915 L13.1916911,366.251256 C10.2257762,375.436263 24.7712072,395.640145 29.0198261,397.829291" id="Fill-45" fill="#386B84"></path>
  <path d="M165.711697,295.57568 C164.990515,294.370083 163.392547,293.957332 162.145022,294.654829 L145.353506,304.021394 C144.104629,304.717584 143.677061,306.260174 144.399597,307.465772 C145.120779,308.671369 146.718747,309.08412 147.967625,308.386624 L164.759141,299.020058 C166.006665,298.323868 166.434233,296.781278 165.711697,295.57568" id="Fill-47" fill="#FF5655"></path>
  <path d="M171.977734,315.232276 C171.256551,314.026678 169.658583,313.613927 168.411059,314.311424 L143.995031,327.928276 C142.746153,328.624466 142.318585,330.167056 143.041121,331.371347 C143.762304,332.576945 145.360272,332.989695 146.609149,332.292199 L171.025177,318.675347 C172.272701,317.980463 172.700269,316.437873 171.977734,315.232276" id="Fill-49" fill="#FF5655"></path>
  <path d="M109.111705,353.190964 C109.160415,353.159616 109.207772,353.126962 109.259188,353.098226 L109.408025,353.014631 L137.577451,337.280473 C138.810092,336.59212 139.229542,335.06651 138.515124,333.871362 C137.799354,332.676214 136.220329,332.264769 134.987688,332.953122 L111.897662,345.859416 L111.748825,345.943011 C110.516184,346.631364 108.935806,346.21992 108.221389,345.024772 C107.505618,343.829624 107.926421,342.304014 109.159062,341.615661 L109.307899,341.532066 L156.44186,315.230969 C157.674501,314.542616 158.093951,313.017006 157.379533,311.821858 C156.663763,310.62671 155.084738,310.215266 153.852097,310.903619 L110.80574,334.925443 L110.656903,335.009039 C109.424262,335.697392 107.843884,335.285947 107.129467,334.090799 C106.413696,332.895651 106.833146,331.370041 108.06714,330.681688 L108.215977,330.598093 L140.316051,312.686545 C141.548692,311.998192 141.968142,310.472582 141.253724,309.277434 C140.537954,308.082285 138.958929,307.670841 137.726288,308.359194 L95.3496973,331.994392 L95.2008603,332.077987 C93.9682196,332.76634 92.3878416,332.354895 91.6734242,331.159747 C90.9576537,329.964599 91.3771033,328.438989 92.6110971,327.750636 L125.605547,309.341436 C126.838187,308.653083 127.257637,307.127473 126.54322,305.932325 C125.888337,304.839058 124.512272,304.405409 123.339166,304.863876 L19.384662,362.801784 L37.5075924,393.102382 L109.111705,353.190964 Z" id="Fill-51" fill="#FF5655"></path>
  <path d="M90.2675914,360.807258 L90.2675914,360.807258 C89.5558801,359.616029 87.9633245,359.204584 86.7306838,359.891631 L79.0534024,364.170653 C77.8194086,364.8577 77.3931937,366.395066 78.104905,367.584989 C78.8166163,368.776219 80.4091719,369.187663 81.6418126,368.500616 L89.319094,364.221594 C90.5530877,363.534547 90.9793027,361.998488 90.2675914,360.807258 M9.36793406,368.380448 L76.5515883,330.936392 C77.785582,330.249345 79.364607,330.662095 80.0790244,331.857243 C80.7934418,333.052392 80.3726391,334.579308 79.1386454,335.266355 L41.0620898,356.462927 L38.6793453,357.789999 C37.4453515,358.477046 37.0245488,360.002656 37.7389663,361.197804 C38.4533837,362.392952 40.0324086,362.805703 41.2664024,362.118656 L41.4152394,362.036367 L93.8356194,332.86169 C95.0696132,332.174643 96.6486381,332.587394 97.3630556,333.782542 C98.077473,334.97769 97.6566703,336.504606 96.4226765,337.191653 L49.716283,363.177962 L49.567446,363.260251 C48.3334522,363.947298 47.9126495,365.472908 48.627067,366.669362 C49.3414844,367.86451 50.9205093,368.277261 52.1545031,367.590214 L52.3033401,367.506619 L125.376879,326.819335 C126.610873,326.132288 128.189898,326.545039 128.904315,327.740187 C129.618733,328.935335 129.19793,330.462251 127.963936,331.149298 L39.0771459,380.653248 L38.9283089,380.735537 C37.6943152,381.422584 37.2735125,382.948194 37.9879299,384.144648 C38.7023474,385.339797 40.2813723,385.752547 41.515366,385.0655 L41.664203,384.981905 L70.6589974,368.850671 C71.8929912,368.163624 73.4720161,368.576374 74.1864335,369.771522 C74.900851,370.966671 74.4800483,372.493587 73.2460545,373.180634 L73.5085488,373.010831 L73.3597118,373.09312 C73.2636443,373.146673 73.1743422,373.206757 73.0890992,373.269453 L27.4922175,398.682352 C18.8596734,403.492987 7.71990291,400.611569 2.73657061,392.279493 C-2.24811475,383.94611 0.736742991,373.192389 9.36793406,368.380448" id="Fill-53" fill="#F49376"></path>
</g>
</svg>
