<?xml version="1.0" encoding="utf-8"?>
<!-- Generator: Adobe Illustrator 16.0.0, SVG Export Plug-In . SVG Version: 6.00 Build 0)  -->
<svg version="1.2" baseProfile="tiny" xmlns="http://www.w3.org/2000/svg" xmlns:xlink="http://www.w3.org/1999/xlink"
	 x="0px" y="0px" width="146px" height="30px" viewBox="0 0 146 30" xml:space="preserve">
<g fill="white">
	<path d="M4.26,17.16h4.32v4.26H4.26V30H0V0h4.26V17.16z M12.84,12.84v4.32H8.58v-4.32H12.84z M12.84,25.74H8.58v-4.32h4.26V25.74z
		 M17.16,8.58v4.26h-4.32V8.58H17.16z M17.16,30h-4.32v-4.26h4.32V30z"/>
	<path d="M21.419,8.58h4.26v17.16h-4.26V8.58z M25.679,30v-4.26h12.9V30H25.679z M38.58,8.58h4.26v17.16h-4.26V8.58z"/>
	<path d="M47.099,30V12.84h4.26V30H47.099z M51.359,8.58h8.58v4.26h-8.58V8.58z"/>
	<path d="M64.199,30V12.84h4.26V30H64.199z M68.458,8.58h8.58v4.26h-8.58V8.58z"/>
	<path d="M102.718,12.84v8.58h-17.16v4.32h-4.26v-12.9h4.26v4.32h12.9v-4.32H102.718z M98.458,12.84h-12.9V8.58h12.9V12.84z
		 M85.558,30v-4.26h17.16V30H85.558z"/>
	<path d="M124.138,12.84h-12.9V30h-4.26V8.58h17.16V12.84z M124.138,12.84h4.26V30h-4.26V12.84z"/>
	<path d="M145.497,12.84h-8.58v12.9h-4.26V4.26h4.26v4.32h8.58V12.84z M145.497,30h-8.58v-4.26h8.58V30z"/>
</g>
</svg>
